<?xml version="1.0" encoding="UTF-8" standalone="no"?>
<!-- Created with Inkscape (http://www.inkscape.org/) -->

<svg
   width="827"
   height="156"
   viewBox="0 0 827 156"
   version="1.1"
   id="svg1"
   xmlns="http://www.w3.org/2000/svg"
   xmlns:svg="http://www.w3.org/2000/svg">
  <defs
     id="defs1" />
  <g
     id="layer1">
    <path
       style="fill:#09390f;fill-opacity:1;stroke:none;stroke-opacity:1"
       d="M 220,56 92,154 h 256 z"
       id="path1" />
    <path
       style="fill:#228931;fill-opacity:1;stroke:none;stroke-opacity:1"
       d="m 89.63967,150.77062 128,-98 L 0,4 Z"
       id="path2" />
    <path
       style="fill:#3ad44d;fill-opacity:1;stroke:none;stroke-opacity:1"
       d="M 218,48.764 0.858483,0.093206 218,29 Z"
       id="path3" />
    <path
       style="fill:#35c448;fill-opacity:1;stroke:none;stroke-opacity:1"
       d="m 350.36033,150.77062 -128,-98 L 440,4 Z"
       id="path2-1" />
    <path
       style="fill:#47f35e;fill-opacity:1;stroke:none;stroke-opacity:1"
       d="M 222,48.764 224.47882,48.20839 439.14152,0.09321 222,29 Z"
       id="path3-7" />
    <path
       d="M 503.49996,134.87515 H 475.0625 V 23.312831 h 6.87499 l 9.37499,13.229145 q 6.87499,-6.24999 15.62497,-9.583318 8.74999,-3.437494 18.12497,-3.437494 h 25.10413 v 28.333288 h -25.10413 q -4.47916,0 -8.43748,1.666664 -3.95833,1.666664 -6.87499,4.583326 -2.91666,2.916662 -4.58333,6.874989 -1.66666,3.958327 -1.66666,8.437486 z M 669.12469,78.10441 q 0,12.49998 -4.47916,23.3333 -4.47916,10.72915 -12.18748,18.6458 -7.70832,7.81249 -18.12497,12.39581 -10.31248,4.47916 -22.18746,4.47916 -11.77082,0 -22.18747,-4.47916 -10.31248,-4.58332 -18.12497,-12.39581 -7.70832,-7.91665 -12.18748,-18.6458 -4.47916,-10.83332 -4.47916,-23.3333 0,-12.708313 4.47916,-23.541629 4.47916,-10.833316 12.18748,-18.645804 7.81249,-7.916654 18.12497,-12.395813 10.41665,-4.47916 22.18747,-4.47916 11.87498,0 22.18746,4.270827 10.41665,4.16666 18.12497,11.979147 7.70832,7.708321 12.18748,18.645804 4.47916,10.833316 4.47916,24.166628 z m -28.64578,0 q 0,-6.874989 -2.29167,-12.395814 -2.18749,-5.624991 -6.04165,-9.583318 -3.85416,-4.062493 -9.06249,-6.145823 -5.10416,-2.187497 -10.93748,-2.187497 -5.83333,0 -11.04165,2.187497 -5.10416,2.08333 -8.95832,6.145823 -3.74999,3.958327 -5.93749,9.583318 -2.1875,5.520825 -2.1875,12.395814 0,6.458323 2.1875,11.979147 2.1875,5.520825 5.93749,9.583318 3.85416,4.062495 8.95832,6.458325 5.20832,2.29166 11.04165,2.29166 5.83332,0 10.93748,-2.18749 5.20833,-2.1875 9.06249,-6.14583 3.85416,-3.958326 6.04165,-9.583317 2.29167,-5.624991 2.29167,-12.395813 z m 185.20802,16.458307 q 0,8.749983 -3.33333,16.562473 -3.33332,7.70832 -9.16665,13.43748 -5.72916,5.72916 -13.54164,9.06248 -7.70832,3.33333 -16.56248,3.33333 -7.91665,0 -15.20831,-2.70833 -7.29165,-2.81249 -13.22914,-8.12498 -5.83332,5.31249 -13.12498,8.12498 -7.18749,2.70833 -15.20831,2.70833 -8.85415,0 -16.56247,-3.33333 -7.70832,-3.33332 -13.54165,-9.06248 -5.72916,-5.72916 -9.06248,-13.43748 -3.33333,-7.81249 -3.33333,-16.562473 V 23.521164 h 28.43745 v 71.041553 q 0,2.916662 1.04167,5.520823 1.14583,2.5 3.02083,4.47916 1.97916,1.875 4.47916,3.02083 2.60416,1.04166 5.52082,1.04166 2.91666,0 5.52083,-1.04166 2.60416,-1.14583 4.58332,-3.02083 1.97916,-1.97916 3.02083,-4.47916 1.14583,-2.604161 1.14583,-5.520823 V 23.521164 h 28.33329 v 71.041553 q 0,2.916662 1.14583,5.520823 1.14583,2.5 3.02083,4.47916 1.97916,1.875 4.47916,3.02083 2.60416,1.04166 5.52082,1.04166 2.91667,0 5.52083,-1.04166 2.60416,-1.14583 4.47916,-3.02083 1.97916,-1.97916 3.12499,-4.47916 1.14583,-2.604161 1.14583,-5.520823 V 23.521164 h 28.33329 z"
       id="text4"
       style="font-size:213.333px;font-family:Righteous;-inkscape-font-specification:'Righteous, Normal';fill:#3ad44d"
       aria-label="row" />
  </g>
</svg>
