<?xml version="1.0" encoding="UTF-8" standalone="no"?>
<!-- Created with Inkscape (http://www.inkscape.org/) -->

<svg
   width="440"
   height="400"
   viewBox="0 0 440 400"
   version="1.1"
   id="svg1"
   sodipodi:docname="favicon.svg"
   inkscape:version="1.3.2 (091e20e, 2023-11-25)"
   xmlns:inkscape="http://www.inkscape.org/namespaces/inkscape"
   xmlns:sodipodi="http://sodipodi.sourceforge.net/DTD/sodipodi-0.dtd"
   xmlns="http://www.w3.org/2000/svg"
   xmlns:svg="http://www.w3.org/2000/svg">
  <sodipodi:namedview
     id="namedview1"
     pagecolor="#505050"
     bordercolor="#ffffff"
     borderopacity="1"
     inkscape:showpageshadow="0"
     inkscape:pageopacity="0"
     inkscape:pagecheckerboard="1"
     inkscape:deskcolor="#505050"
     inkscape:zoom="1.4022727"
     inkscape:cx="220"
     inkscape:cy="164.73258"
     inkscape:window-width="1392"
     inkscape:window-height="1027"
     inkscape:window-x="0"
     inkscape:window-y="25"
     inkscape:window-maximized="0"
     inkscape:current-layer="svg1" />
  <defs
     id="defs1" />
  <g
     id="g1"
     transform="translate(0,236)">
    <path
       style="fill:#09390f;fill-opacity:1;stroke:none;stroke-opacity:1"
       d="M 220,56 92,154 h 256 z"
       id="path1" />
    <path
       style="fill:#228931;fill-opacity:1;stroke:none;stroke-opacity:1"
       d="m 89.63967,150.77062 128,-98 L 0,4 Z"
       id="path2" />
    <path
       style="fill:#3ad44d;fill-opacity:1;stroke:none;stroke-opacity:1"
       d="M 218,48.764 0.858483,0.093206 218,29 Z"
       id="path3" />
    <path
       style="fill:#35c448;fill-opacity:1;stroke:none;stroke-opacity:1"
       d="m 350.36033,150.77062 -128,-98 L 440,4 Z"
       id="path2-1" />
    <path
       style="fill:#47f35e;fill-opacity:1;stroke:none;stroke-opacity:1"
       d="M 222,48.764 224.47882,48.20839 439.14152,0.09321 222,29 Z"
       id="path3-7" />
  </g>
  <path
     d="M 52.343132,146.62568 H 19.881885 V 19.277768 h 7.847782 l 10.701505,15.101014 q 7.847763,-7.134338 17.835842,-10.939317 9.988061,-3.923886 20.689566,-3.923886 h 28.65626 V 51.857907 H 76.95658 q -5.112938,0 -9.631348,1.90249 -4.518409,1.90249 -7.847763,5.231847 -3.329372,3.329357 -5.231854,7.84777 -1.902483,4.518414 -1.902483,9.631355 z M 241.40306,81.822122 q 0,14.268673 -5.11296,26.634858 -5.11293,12.24728 -13.91194,21.2841 -8.79902,8.91792 -20.68958,14.14977 -11.77167,5.11294 -25.3269,5.11294 -13.43633,0 -25.32689,-5.11294 -11.77166,-5.23185 -20.68958,-14.14977 -8.79902,-9.03682 -13.91196,-21.2841 -5.11294,-12.366185 -5.11294,-26.634858 0,-14.506485 5.11294,-26.872669 5.11294,-12.366184 13.91196,-21.284105 8.91792,-9.036827 20.68958,-14.149769 11.89056,-5.112941 25.32689,-5.112941 13.55523,0 25.3269,4.87513 11.89056,4.756225 20.68958,13.674146 8.79901,8.799016 13.91194,21.284105 5.11296,12.366184 5.11296,27.586103 z m -32.69905,0 q 0,-7.847771 -2.61592,-14.149768 -2.49703,-6.420904 -6.89652,-10.939317 -4.39952,-4.637319 -10.3448,-7.015431 -5.82638,-2.497018 -12.48509,-2.497018 -6.65872,0 -12.604,2.497018 -5.82637,2.378112 -10.22588,7.015431 -4.28059,4.518413 -6.77762,10.939317 -2.49701,6.301997 -2.49701,14.149768 0,7.372148 2.49701,13.674145 2.49703,6.302003 6.77762,10.939313 4.39951,4.63732 10.22588,7.37215 5.94528,2.61592 12.604,2.61592 6.65871,0 12.48509,-2.49701 5.94528,-2.49702 10.3448,-7.01543 4.39949,-4.51842 6.89652,-10.93932 2.61592,-6.420903 2.61592,-14.149768 z m 211.41416,18.787088 q 0,9.98807 -3.80498,18.90599 -3.80498,8.79902 -10.46369,15.33883 -6.53981,6.5398 -15.45773,10.34478 -8.79902,3.80498 -18.906,3.80498 -9.03682,0 -17.36021,-3.09154 -8.32339,-3.21045 -15.10102,-9.27464 -6.6587,6.06419 -14.9821,9.27464 -8.20449,3.09154 -17.36023,3.09154 -10.10698,0 -18.90598,-3.80498 -8.79902,-3.80498 -15.45773,-10.34478 -6.53981,-6.53981 -10.34479,-15.33883 -3.80499,-8.91792 -3.80499,-18.90599 V 19.515579 h 32.46123 v 81.093631 q 0,3.32936 1.18906,6.302 1.30797,2.85373 3.44827,5.11294 2.2592,2.1403 5.11294,3.44826 2.97264,1.18906 6.30199,1.18906 3.32936,0 6.302,-1.18906 2.97264,-1.30796 5.23185,-3.44826 2.25921,-2.25921 3.44827,-5.11294 1.30795,-2.97264 1.30795,-6.302 V 19.515579 h 32.34234 v 81.093631 q 0,3.32936 1.30795,6.302 1.30797,2.85373 3.44827,5.11294 2.2592,2.1403 5.11294,3.44826 2.97264,1.18906 6.30199,1.18906 3.32936,0 6.302,-1.18906 2.97264,-1.30796 5.11295,-3.44826 2.2592,-2.25921 3.56717,-5.11294 1.30795,-2.97264 1.30795,-6.302 V 19.515579 h 32.34233 z"
     id="text4"
     style="font-size:133.333px;font-family:Righteous;-inkscape-font-specification:'Righteous, Normal';fill:#3ad44d;stroke-width:1.82639"
     aria-label="row" />
</svg>
