<?xml version="1.0" encoding="UTF-8" standalone="no"?>
<!-- Created with Inkscape (http://www.inkscape.org/) -->

<svg
   width="440"
   height="304"
   viewBox="0 0 440 304"
   version="1.1"
   id="svg1"
   xmlns="http://www.w3.org/2000/svg"
   xmlns:svg="http://www.w3.org/2000/svg">
  <defs
     id="defs1" />
  <g
     id="layer1">
    <g
       id="g1"
       transform="translate(0,146)">
      <path
         style="fill:#09390f;fill-opacity:1;stroke:none;stroke-opacity:1"
         d="M 220,56 92,154 h 256 z"
         id="path1" />
      <path
         style="fill:#228931;fill-opacity:1;stroke:none;stroke-opacity:1"
         d="m 89.63967,150.77062 128,-98 L 0,4 Z"
         id="path2" />
      <path
         style="fill:#3ad44d;fill-opacity:1;stroke:none;stroke-opacity:1"
         d="M 218,48.764 0.858483,0.093206 218,29 Z"
         id="path3" />
      <path
         style="fill:#35c448;fill-opacity:1;stroke:none;stroke-opacity:1"
         d="m 350.36033,150.77062 -128,-98 L 440,4 Z"
         id="path2-1" />
      <path
         style="fill:#47f35e;fill-opacity:1;stroke:none;stroke-opacity:1"
         d="M 222,48.764 224.47882,48.20839 439.14152,0.09321 222,29 Z"
         id="path3-7" />
    </g>
    <path
       d="M 72.437458,118.83315 H 44.000003 V 7.270831 h 6.874989 l 9.374985,13.229146 Q 67.124966,14.249986 75.874952,10.916658 84.624938,7.479164 93.999923,7.479164 H 119.10405 V 35.812452 H 93.999923 q -4.479159,0 -8.437486,1.666664 -3.958327,1.666664 -6.874989,4.583326 -2.916662,2.916662 -4.583326,6.874989 -1.666664,3.958327 -1.666664,8.437487 z M 238.06219,62.06241 q 0,12.49998 -4.47916,23.333296 -4.47916,10.72915 -12.18748,18.645804 -7.70832,7.81249 -18.12497,12.39581 -10.31248,4.47916 -22.18746,4.47916 -11.77082,0 -22.18747,-4.47916 -10.31248,-4.58332 -18.12497,-12.39581 -7.70832,-7.916654 -12.18748,-18.645804 -4.47916,-10.833316 -4.47916,-23.333296 0,-12.708313 4.47916,-23.541629 4.47916,-10.833316 12.18748,-18.645803 7.81249,-7.916655 18.12497,-12.395814 10.41665,-4.4791595 22.18747,-4.4791595 11.87498,0 22.18746,4.2708265 10.41665,4.16666 18.12497,11.979148 7.70832,7.708321 12.18748,18.645803 4.47916,10.833316 4.47916,24.166628 z m -28.64578,0 q 0,-6.874989 -2.29167,-12.395813 -2.18749,-5.624991 -6.04165,-9.583318 -3.85416,-4.062494 -9.06249,-6.145824 -5.10416,-2.187496 -10.93748,-2.187496 -5.83333,0 -11.04165,2.187496 -5.10416,2.08333 -8.95832,6.145824 -3.74999,3.958327 -5.93749,9.583318 -2.1875,5.520824 -2.1875,12.395813 0,6.458323 2.1875,11.979148 2.1875,5.520824 5.93749,9.583318 3.85416,4.062493 8.95832,6.458323 5.20832,2.291663 11.04165,2.291663 5.83332,0 10.93748,-2.187497 5.20833,-2.187496 9.06249,-6.145823 3.85416,-3.958327 6.04165,-9.583318 2.29167,-5.624991 2.29167,-12.395814 z m 185.20802,16.458307 q 0,8.749986 -3.33333,16.562474 -3.33332,7.708319 -9.16665,13.437479 -5.72916,5.72916 -13.54164,9.06248 -7.70832,3.33333 -16.56248,3.33333 -7.91665,0 -15.20831,-2.70833 -7.29165,-2.81249 -13.22914,-8.12498 -5.83332,5.31249 -13.12498,8.12498 -7.18749,2.70833 -15.20831,2.70833 -8.85415,0 -16.56247,-3.33333 -7.70832,-3.33332 -13.54165,-9.06248 -5.72916,-5.72916 -9.06248,-13.437479 -3.33333,-7.812488 -3.33333,-16.562474 V 7.479164 h 28.43745 v 71.041553 q 0,2.916662 1.04167,5.520825 1.14583,2.499996 3.02083,4.479159 1.97916,1.874997 4.47916,3.020829 2.60416,1.041665 5.52082,1.041665 2.91666,0 5.52083,-1.041665 2.60416,-1.145832 4.58332,-3.020829 1.97916,-1.979163 3.02083,-4.479159 1.14583,-2.604163 1.14583,-5.520825 V 7.479164 h 28.33329 v 71.041553 q 0,2.916662 1.14583,5.520825 1.14583,2.499996 3.02083,4.479159 1.97916,1.874997 4.47916,3.020829 2.60416,1.041665 5.52082,1.041665 2.91667,0 5.52083,-1.041665 2.60416,-1.145832 4.47916,-3.020829 1.97916,-1.979163 3.12499,-4.479159 1.14583,-2.604163 1.14583,-5.520825 V 7.479164 h 28.33329 z"
       id="text4"
       style="font-size:213.333px;font-family:Righteous;-inkscape-font-specification:'Righteous, Normal';fill:#3ad44d"
       aria-label="row" />
  </g>
</svg>
